<svg height="24px" viewBox="0 0 480.02695 480" width="24px" xmlns="http://www.w3.org/2000/svg"><path d="m455.46875 255.972656-231.496094.039063v-231.429688c-.003906-2.21875-.921875-4.335937-2.546875-5.847656-1.613281-1.53125-3.796875-2.304687-6.015625-2.128906-123.519531 8.855469-218.308594 113.160156-215.3437498 236.960937 2.9648438 123.804688 102.6406248 223.449219 226.4453128 226.378906 123.800781 2.929688 228.082031-91.890624 236.898437-215.410156.15625-2.21875-.617187-4.402344-2.136718-6.023437-1.515626-1.625-3.640626-2.542969-5.863282-2.539063zm-223.441406 208.039063c-114.667969.078125-209.410156-89.460938-215.804688-203.953125-6.394531-114.488282 77.785156-214.023438 191.75-226.71875v230.671875c0 4.421875 3.578125 8 8 8l230.734375-.039063c-12.480469 109.207032-104.765625 191.757813-214.679687 192.039063zm0 0"/><path d="m248.027344.0117188c-4.417969 0-8 3.5820312-8 8.0000002v224c0 4.421875 3.582031 8 8 8h224c4.417968 0 8-3.578125 8-8-.148438-128.066407-103.933594-231.847657-232-232.0000002zm8 224.0000002v-207.847657c112.960937 4.304688 203.542968 94.890626 207.847656 207.847657zm0 0"/></svg>