<?xml version="1.0"?>
<svg xmlns="http://www.w3.org/2000/svg" xmlns:xlink="http://www.w3.org/1999/xlink" xmlns:svgjs="http://svgjs.com/svgjs" version="1.1" width="24px" height="24px" x="0" y="0" viewBox="0 0 480.02695 480" style="enable-background:new 0 0 512 512" xml:space="preserve" class=""><g><path xmlns="http://www.w3.org/2000/svg" d="m232.027344 472.011719c117.523437.007812 215.066406-90.816407 223.441406-208.039063l-239.496094.039063v-239.429688c-120.324218 8.585938-212.242187 110.910157-207.917968 231.464844 4.328124 120.550781 103.34375 216.027344 223.972656 215.964844zm0 0" fill="#000000" data-original="#c2fb3b" style="" class=""/><path xmlns="http://www.w3.org/2000/svg" d="m248.027344 8.011719v224h224c0-123.710938-100.289063-224-224-224zm0 0" fill="#000000" data-original="#00bb77" style="" class=""/><path xmlns="http://www.w3.org/2000/svg" d="m455.46875 255.972656-231.496094.039063v-231.429688c-.003906-2.21875-.921875-4.335937-2.546875-5.847656-1.613281-1.53125-3.796875-2.304687-6.015625-2.128906-123.519531 8.855469-218.308594 113.160156-215.3437498 236.960937 2.9648438 123.804688 102.6406248 223.449219 226.4453128 226.378906 123.800781 2.929688 228.082031-91.890624 236.898437-215.410156.15625-2.21875-.617187-4.402344-2.136718-6.023437-1.515626-1.625-3.640626-2.542969-5.863282-2.539063zm-223.441406 208.039063c-114.667969.078125-209.410156-89.460938-215.804688-203.953125-6.394531-114.488282 77.785156-214.023438 191.75-226.71875v230.671875c0 4.421875 3.578125 8 8 8l230.734375-.039063c-12.480469 109.207032-104.765625 191.757813-214.679687 192.039063zm0 0" fill="#ffffff" data-original="#000000" style="" class=""/><path xmlns="http://www.w3.org/2000/svg" d="m248.027344.0117188c-4.417969 0-8 3.5820312-8 8.0000002v224c0 4.421875 3.582031 8 8 8h224c4.417968 0 8-3.578125 8-8-.148438-128.066407-103.933594-231.847657-232-232.0000002zm8 224.0000002v-207.847657c112.960937 4.304688 203.542968 94.890626 207.847656 207.847657zm0 0" fill="#ffffff" data-original="#000000" style="" class=""/></g></svg>
