<?xml version="1.0"?>
<svg xmlns="http://www.w3.org/2000/svg" xmlns:xlink="http://www.w3.org/1999/xlink" xmlns:svgjs="http://svgjs.com/svgjs" version="1.1" width="24px" height="24px" x="0" y="0" viewBox="0 0 512.001 512.001" style="enable-background:new 0 0 512 512" xml:space="preserve" class=""><g>
<path xmlns="http://www.w3.org/2000/svg" style="" d="M170.001,49.001H92.759c-21.406,0-38.758,17.353-38.758,38.758v375.484  c0,21.406,17.353,38.758,38.758,38.758h326.483c21.406,0,38.758-17.353,38.758-38.758V87.759c0-21.406-17.353-38.758-38.758-38.758  H340C340,49.001,170.001,49.001,170.001,49.001z" fill="#000000" data-original="#ffffff" class=""/>
<path xmlns="http://www.w3.org/2000/svg" d="M400.003,172H256.001c-5.523,0-10-4.477-10-10s4.477-10,10-10h144.002c5.523,0,10,4.477,10,10S405.526,172,400.003,172z" fill="#ffffff" data-original="#000000" style="" class=""/>
<path xmlns="http://www.w3.org/2000/svg" style="" d="M300.48,32h-15.566c-3.502-12.683-15.116-22-28.913-22c-13.797,0-25.411,9.317-28.913,22h-15.587  c-28.443,0-51.5,23.058-51.5,51.5V90H351.98v-6.5C351.98,55.058,328.923,32,300.48,32z" fill="#000000" data-original="#9bbeff" class=""/>
<path xmlns="http://www.w3.org/2000/svg" d="M357.941,220.001c-2.63,0-5.21-1.07-7.07-2.93c-1.86-1.86-2.93-4.44-2.93-7.07s1.07-5.21,2.93-7.07s4.44-2.93,7.07-2.93  s5.21,1.07,7.07,2.93c1.86,1.86,2.93,4.44,2.93,7.07s-1.07,5.21-2.93,7.07S360.571,220.001,357.941,220.001z" fill="#ffffff" data-original="#000000" style="" class=""/>
<path xmlns="http://www.w3.org/2000/svg" d="M255.991,63.001c-2.63,0-5.21-1.07-7.07-2.93s-2.93-4.44-2.93-7.07s1.07-5.21,2.93-7.07c1.86-1.86,4.44-2.93,7.07-2.93  c2.63,0,5.21,1.07,7.07,2.93c1.86,1.86,2.93,4.44,2.93,7.07s-1.07,5.21-2.93,7.07C261.201,61.931,258.621,63.001,255.991,63.001z" fill="#ffffff" data-original="#000000" style="" class=""/>
<path xmlns="http://www.w3.org/2000/svg" d="M315.878,220h-59.877c-5.523,0-10-4.477-10-10s4.477-10,10-10h59.877c5.523,0,10,4.477,10,10S321.401,220,315.878,220z" fill="#ffffff" data-original="#000000" style="" class=""/>
<path xmlns="http://www.w3.org/2000/svg" d="M400.003,280H256.001c-5.523,0-10-4.477-10-10s4.477-10,10-10h144.002c5.523,0,10,4.477,10,10S405.526,280,400.003,280z" fill="#ffffff" data-original="#000000" style="" class=""/>
<path xmlns="http://www.w3.org/2000/svg" d="M357.941,328.001c-2.63,0-5.21-1.07-7.07-2.93c-1.86-1.86-2.93-4.44-2.93-7.07s1.07-5.21,2.93-7.07  c1.86-1.86,4.44-2.93,7.07-2.93s5.21,1.07,7.07,2.93c1.86,1.86,2.93,4.44,2.93,7.07s-1.07,5.21-2.93,7.07  S360.571,328.001,357.941,328.001z" fill="#ffffff" data-original="#000000" style="" class=""/>
<path xmlns="http://www.w3.org/2000/svg" d="M315.878,328h-59.877c-5.523,0-10-4.477-10-10s4.477-10,10-10h59.877c5.523,0,10,4.477,10,10S321.401,328,315.878,328z" fill="#ffffff" data-original="#000000" style="" class=""/>
<path xmlns="http://www.w3.org/2000/svg" d="M400.003,388H256.001c-5.523,0-10-4.477-10-10s4.477-10,10-10h144.002c5.523,0,10,4.477,10,10S405.526,388,400.003,388z" fill="#ffffff" data-original="#000000" style="" class=""/>
<path xmlns="http://www.w3.org/2000/svg" d="M357.941,436.001c-2.63,0-5.21-1.07-7.07-2.93c-1.86-1.86-2.93-4.44-2.93-7.07s1.07-5.21,2.93-7.07  c1.86-1.86,4.44-2.93,7.07-2.93s5.21,1.07,7.07,2.93c1.86,1.86,2.93,4.44,2.93,7.07s-1.07,5.21-2.93,7.07  S360.571,436.001,357.941,436.001z" fill="#ffffff" data-original="#000000" style="" class=""/>
<path xmlns="http://www.w3.org/2000/svg" d="M315.878,436h-59.877c-5.523,0-10-4.477-10-10s4.477-10,10-10h59.877c5.523,0,10,4.477,10,10S321.401,436,315.878,436z" fill="#ffffff" data-original="#000000" style="" class=""/>
<g xmlns="http://www.w3.org/2000/svg">
	<rect x="120" y="378" style="" width="48" height="48" fill="#000000" data-original="#f5c86e" class=""/>
	<rect x="120" y="270" style="" width="48" height="48" fill="#000000" data-original="#f5c86e" class=""/>
</g>
<path xmlns="http://www.w3.org/2000/svg" d="M419.243,39.001h-76.379C331.823,28.48,316.898,22,300.479,22h-8.76C285.022,8.742,271.263,0,256,0s-29.021,8.742-35.719,22  H211.5c-16.419,0-31.343,6.48-42.384,17.001H92.759c-26.885,0-48.758,21.873-48.758,48.758v375.484  c0,26.885,21.873,48.758,48.758,48.758h326.483c26.885,0,48.758-21.873,48.758-48.758V87.759  C468.001,60.874,446.128,39.001,419.243,39.001z M211.501,42h15.586c4.498,0,8.442-3.003,9.639-7.338  C239.111,26.029,247.037,20,256.001,20s16.89,6.029,19.274,14.662c1.197,4.335,5.142,7.338,9.639,7.338h15.565  c21.705,0,39.571,16.75,41.354,38.001H170.147C171.93,58.75,189.797,42,211.501,42z M448.001,463.244  c0,15.857-12.901,28.758-28.758,28.758H92.759c-15.857,0-28.758-12.901-28.758-28.758V87.759c0-15.857,12.901-28.758,28.758-28.758  h62.347c-3.276,7.512-5.105,15.794-5.105,24.5v6.5c0,5.523,4.477,10,10,10H351.98c5.523,0,10-4.477,10-10v-6.5  c0-8.705-1.829-16.988-5.105-24.5h62.368c15.857,0,28.758,12.901,28.758,28.758V463.244z" fill="#ffffff" data-original="#000000" style="" class=""/>
<path xmlns="http://www.w3.org/2000/svg" d="M178.268,149.595l-42.762,42.763l-13.173-13.174c-3.905-3.904-10.237-3.904-14.143,0c-3.905,3.905-3.905,10.237,0,14.143  l20.245,20.245c1.953,1.953,4.512,2.929,7.071,2.929s5.119-0.976,7.071-2.929l49.833-49.833c3.905-3.905,3.905-10.237,0-14.143  C188.505,145.691,182.173,145.691,178.268,149.595z" fill="#ffffff" data-original="#000000" style="" class=""/>
<path xmlns="http://www.w3.org/2000/svg" d="M168.001,368h-48c-5.523,0-10,4.477-10,10v48c0,5.523,4.477,10,10,10h48c5.523,0,10-4.477,10-10v-48  C178.001,372.477,173.524,368,168.001,368z M158.001,416h-28v-28h28V416z" fill="#ffffff" data-original="#000000" style="" class=""/>
<path xmlns="http://www.w3.org/2000/svg" d="M168.001,260h-48c-5.523,0-10,4.477-10,10v48c0,5.523,4.477,10,10,10h48c5.523,0,10-4.477,10-10v-48  C178.001,264.477,173.524,260,168.001,260z M158.001,308h-28v-28h28V308z" fill="#ffffff" data-original="#000000" style="" class=""/>
<g xmlns="http://www.w3.org/2000/svg">
</g>
<g xmlns="http://www.w3.org/2000/svg">
</g>
<g xmlns="http://www.w3.org/2000/svg">
</g>
<g xmlns="http://www.w3.org/2000/svg">
</g>
<g xmlns="http://www.w3.org/2000/svg">
</g>
<g xmlns="http://www.w3.org/2000/svg">
</g>
<g xmlns="http://www.w3.org/2000/svg">
</g>
<g xmlns="http://www.w3.org/2000/svg">
</g>
<g xmlns="http://www.w3.org/2000/svg">
</g>
<g xmlns="http://www.w3.org/2000/svg">
</g>
<g xmlns="http://www.w3.org/2000/svg">
</g>
<g xmlns="http://www.w3.org/2000/svg">
</g>
<g xmlns="http://www.w3.org/2000/svg">
</g>
<g xmlns="http://www.w3.org/2000/svg">
</g>
<g xmlns="http://www.w3.org/2000/svg">
</g>
</g></svg>
