<svg xmlns="http://www.w3.org/2000/svg" xmlns:xlink="http://www.w3.org/1999/xlink" version="1.1" width="34px" height="24px" style="margin-left:8px" xml:space="preserve"><rect id="backgroundrect"  x="0" y="0" fill="none" stroke="none" class="" style=""/>
















<g class="currentLayer" style=""><title>Layer 1</title><path fill="" fill-opacity="1" stroke="none" stroke-opacity="1" stroke-width="1" stroke-dasharray="none" stroke-linejoin="miter" stroke-linecap="butt" stroke-dashoffset="" fill-rule="nonzero" opacity="1" marker-start="" marker-mid="" marker-end="" d="M-0.2105257101109994,12.029239787989884 C-0.2105257101109994,5.3832513015822805 5.235534002310708,6.275921237753959e-7 11.959064511473308,6.275921237753959e-7 C18.682595020635905,6.275921237753959e-7 24.128654733057616,5.3832513015822805 24.128654733057616,12.029239787989884 C24.128654733057616,18.675228274397487 18.682595020635905,24.05847894838764 11.959064511473308,24.05847894838764 C5.235534002310708,24.05847894838764 -0.2105257101109994,18.675228274397487 -0.2105257101109994,12.029239787989884 z" id="svg_18" class=""/><g id="svg_1" class="" fill="#ffffff" fill-opacity="1">
	<path d="M11.947287527756588,0.5857980562397671 C5.672612115173333,0.5857980562397671 0.5847946512953754,5.67239154699625 0.5847946512953754,11.947287539861371 s5.087318364656467,11.361489483621606 11.36249287646121,11.361489483621606 c6.275673611026236,0 11.36249287646121,-5.086593490756484 11.36249287646121,-11.361489483621606 S18.22296113878282,0.5857980562397671 11.947287527756588,0.5857980562397671 zM11.947287527756588,3.9830156672659998 c2.0762527614020314,0 3.7587162370477625,1.682887877828776 3.7587162370477625,3.758050332162122 c0,2.0756615314026914 -1.682463475645734,3.758050332162122 -3.7587162370477625,3.758050332162122 c-2.075254562959049,0 -3.7577180386047817,-1.6823888007594334 -3.7577180386047817,-3.758050332162122 C8.189569489151802,5.6659035450947774 9.872032964797537,3.9830156672659998 11.947287527756588,3.9830156672659998 zM11.94479203164913,20.338270306746065 c-2.0707626699656316,0 -3.967339711630948,-0.754105451779146 -5.4301995298206975,-2.0022972022090877 c-0.3563568441444846,-0.30393793523064283 -0.5619857233987251,-0.7496137581550485 -0.5619857233987251,-1.2172489721305997 c0,-2.104608001424657 1.7034256429483496,-3.7889931104614645 3.8086261591968507,-3.7889931104614645 h4.37310737870303 c2.1056996154699927,0 3.8026369685389585,1.6843851090368076 3.8026369685389585,3.7889931104614645 c0,0.46813429104489734 -0.20463068081125815,0.9128119598306138 -0.5614866241772328,1.2167498950612547 C15.913129941723062,19.584164854966915 14.016053800836254,20.338270306746065 11.94479203164913,20.338270306746065 z" id="svg_2" fill="#ffffff" fill-opacity="1"/>
</g><g id="svg_3">
</g><g id="svg_4">
</g><g id="svg_5">
</g><g id="svg_6">
</g><g id="svg_7">
</g><g id="svg_8">
</g><g id="svg_9">
</g><g id="svg_10">
</g><g id="svg_11">
</g><g id="svg_12">
</g><g id="svg_13">
</g><g id="svg_14">
</g><g id="svg_15">
</g><g id="svg_16">
</g><g id="svg_17">
</g></g></svg>